# xmcd
#
# Track frame offsets:
#	150
#	16050
#	31290
#	46097
#	60717
#	77100
#	91095
#	104827
#	118792
#	131555
#	149200
#	164235
#	180835
#
# Disc length: 2646
#
# Revision: 2
# Processed by: cddbd v1.5.1PL0 Copyright (c) Steve Scherf et al.
# Submitted via: ExactAudioCopy v0.90b3
# Normalized: r0:TDELIM( - ),TSWAP
#
DISCID=b10a540d
DTITLE=Tracy Byrd - Wonders Of Wildlife
DYEAR=1900
DGENRE=Country
TTITLE0=Tracy Byrd - Pass It On
TTITLE1=Brad Paisley - Sleepin' On The Foldout
TTITLE2=Alabama - Born Country
TTITLE3=Montgomery Gentry - I've Loved A Lot More Than I've Hurt
TTITLE4=Waylon Jennings - America
TTITLE5=Mark Chesnutt - Bubba Shot The Jukebox
TTITLE6=Aaron Tippin - You've Got To Stand For Something
TTITLE7=Tracy Byrd - Down On The Bottom
TTITLE8=Keith Whitley - Hard Livin'
TTITLE9=Andy Griggs (Duet With Waylon Jennings) - Shine On Me
TTITLE10=Jerry Kilgore - Love Trip
TTITLE11=The Charlie Daniels Band - Drinkin' My Baby Goodbye
TTITLE12=Kenny Chesney - Back Where I Come From
EXTD=
EXTT0=
EXTT1=
EXTT2=
EXTT3=
EXTT4=
EXTT5=
EXTT6=
EXTT7=
EXTT8=
EXTT9=
EXTT10=
EXTT11=
EXTT12=
PLAYORDER=
